REM DIRINDEX 1\2\4,1\2\5,1\2\6,1\3\7,1\3\8,1\3\9,1\3\10
REM DIRNAME folder01,folder02,folder03,folder04,folder05,folder06,folder07,folder08,folder09,folder10
TITLE ""
FILE "b_117.mp3" MP3
  TRACK 01 AUDIO
    TITLE "0:"
    INDEX 01 00:00:00
  TRACK 02 AUDIO
    TITLE "7:cjc057_07391"
    INDEX 01 00:00:13
  TRACK 03 AUDIO
    TITLE "0:"
    INDEX 01 00:01:30
  TRACK 04 AUDIO
    TITLE "8:cjc057_07392"
    INDEX 01 00:01:62
  TRACK 05 AUDIO
    TITLE "0:"
    INDEX 01 00:05:71
  TRACK 06 AUDIO
    TITLE "7:cjc057_07393"
    INDEX 01 00:07:02
  TRACK 07 AUDIO
    TITLE "0:"
    INDEX 01 00:08:13
  TRACK 08 AUDIO
    TITLE "8:cjc057_07394"
    INDEX 01 00:08:46
  TRACK 09 AUDIO
    TITLE "0:"
    INDEX 01 00:11:62
  TRACK 10 AUDIO
    TITLE "7:cjc057_07395"
    INDEX 01 00:12:63
  TRACK 11 AUDIO
    TITLE "0:"
    INDEX 01 00:13:63
  TRACK 12 AUDIO
    TITLE "8:cjc057_07396"
    INDEX 01 00:14:19
  TRACK 13 AUDIO
    TITLE "0:"
    INDEX 01 00:15:23
  TRACK 14 AUDIO
    TITLE "7:cjc057_07397"
    INDEX 01 00:16:30
  TRACK 15 AUDIO
    TITLE "0:"
    INDEX 01 00:17:49
  TRACK 16 AUDIO
    TITLE "8:cjc057_07398"
    INDEX 01 00:18:05
  TRACK 17 AUDIO
    TITLE "0:"
    INDEX 01 00:20:08
  TRACK 18 AUDIO
    TITLE "7:cjc057_07399"
    INDEX 01 00:21:13
  TRACK 19 AUDIO
    TITLE "0:"
    INDEX 01 00:22:25
  TRACK 20 AUDIO
    TITLE "8:cjc057_07400"
    INDEX 01 00:22:58
  TRACK 21 AUDIO
    TITLE "0:"
    INDEX 01 00:25:50
  TRACK 22 AUDIO
    TITLE "7:cjc057_07401"
    INDEX 01 00:26:56
  TRACK 23 AUDIO
    TITLE "0:"
    INDEX 01 00:27:61
  TRACK 24 AUDIO
    TITLE "8:cjc057_07402"
    INDEX 01 00:28:17
  TRACK 25 AUDIO
    TITLE "0:"
    INDEX 01 00:32:45
  TRACK 26 AUDIO
    TITLE "7:cjc057_07403"
    INDEX 01 00:33:54
  TRACK 27 AUDIO
    TITLE "0:"
    INDEX 01 00:34:73
  TRACK 28 AUDIO
    TITLE "8:cjc057_07404"
    INDEX 01 00:35:29
  TRACK 29 AUDIO
    TITLE "0:"
    INDEX 01 00:37:69
  TRACK 30 AUDIO
    TITLE "7:cjc057_07405"
    INDEX 01 00:38:73
  TRACK 31 AUDIO
    TITLE "0:"
    INDEX 01 00:40:05
  TRACK 32 AUDIO
    TITLE "8:cjc057_07406"
    INDEX 01 00:40:38
  TRACK 33 AUDIO
    TITLE "0:"
    INDEX 01 00:41:55
  TRACK 34 AUDIO
    TITLE "7:cjc057_07407"
    INDEX 01 00:42:63
  TRACK 35 AUDIO
    TITLE "0:"
    INDEX 01 00:43:74
  TRACK 36 AUDIO
    TITLE "8:cjc057_07408"
    INDEX 01 00:44:32
  TRACK 37 AUDIO
    TITLE "0:"
    INDEX 01 00:48:02
  TRACK 38 AUDIO
    TITLE "7:cjc057_07409"
    INDEX 01 00:49:08
  TRACK 39 AUDIO
    TITLE "0:"
    INDEX 01 00:50:46
  TRACK 40 AUDIO
    TITLE "8:cjc057_07410"
    INDEX 01 00:51:03
  TRACK 41 AUDIO
    TITLE "0:"
    INDEX 01 00:53:72
  TRACK 42 AUDIO
    TITLE "7:cjc057_07411"
    INDEX 01 00:55:03
  TRACK 43 AUDIO
    TITLE "0:"
    INDEX 01 00:56:14
  TRACK 44 AUDIO
    TITLE "8:cjc057_07412"
    INDEX 01 00:56:47
  TRACK 45 AUDIO
    TITLE "0:"
    INDEX 01 01:00:08
  TRACK 46 AUDIO
    TITLE "7:cjc057_07413"
    INDEX 01 01:01:13
  TRACK 47 AUDIO
    TITLE "0:"
    INDEX 01 01:02:28
  TRACK 48 AUDIO
    TITLE "8:cjc057_07414"
    INDEX 01 01:02:59
  TRACK 49 AUDIO
    TITLE "0:"
    INDEX 01 01:10:16
  TRACK 50 AUDIO
    TITLE "7:cjc057_07415"
    INDEX 01 01:11:25
  TRACK 51 AUDIO
    TITLE "0:"
    INDEX 01 01:12:50
  TRACK 52 AUDIO
    TITLE "8:cjc057_07416"
    INDEX 01 01:13:04
  TRACK 53 AUDIO
    TITLE "0:"
    INDEX 01 01:15:07
  TRACK 54 AUDIO
    TITLE "7:cjc057_07417"
    INDEX 01 01:16:12
  TRACK 55 AUDIO
    TITLE "0:"
    INDEX 01 01:17:33
  TRACK 56 AUDIO
    TITLE "8:cjc057_07418"
    INDEX 01 01:17:63
  TRACK 57 AUDIO
    TITLE "0:"
    INDEX 01 01:21:35
  TRACK 58 AUDIO
    TITLE "7:cjc057_07419"
    INDEX 01 01:22:42
  TRACK 59 AUDIO
    TITLE "0:"
    INDEX 01 01:23:56
  TRACK 60 AUDIO
    TITLE "8:cjc057_07420"
    INDEX 01 01:24:14
  TRACK 61 AUDIO
    TITLE "0:"
    INDEX 01 01:27:14
  TRACK 62 AUDIO
    TITLE "7:cjc057_07421"
    INDEX 01 01:28:16
  TRACK 63 AUDIO
    TITLE "0:"
    INDEX 01 01:29:39
  TRACK 64 AUDIO
    TITLE "8:cjc057_07422"
    INDEX 01 01:29:72
  TRACK 65 AUDIO
    TITLE "0:"
    INDEX 01 01:31:18
  TRACK 66 AUDIO
    TITLE "7:cjc057_07423"
    INDEX 01 01:32:23
  TRACK 67 AUDIO
    TITLE "0:"
    INDEX 01 01:33:48
  TRACK 68 AUDIO
    TITLE "8:cjc057_07424"
    INDEX 01 01:34:05
  TRACK 69 AUDIO
    TITLE "0:"
    INDEX 01 01:35:16
  TRACK 70 AUDIO
    TITLE "7:cjc057_07425"
    INDEX 01 01:36:23
  TRACK 71 AUDIO
    TITLE "0:"
    INDEX 01 01:37:36
  TRACK 72 AUDIO
    TITLE "8:cjc057_07426"
    INDEX 01 01:37:68
  TRACK 73 AUDIO
    TITLE "0:"
    INDEX 01 01:40:11
  TRACK 74 AUDIO
    TITLE "7:cjc057_07427"
    INDEX 01 01:41:16
  TRACK 75 AUDIO
    TITLE "0:"
    INDEX 01 01:42:35
  TRACK 76 AUDIO
    TITLE "8:cjc057_07428"
    INDEX 01 01:42:67
  TRACK 77 AUDIO
    TITLE "0:"
    INDEX 01 01:45:34
  TRACK 78 AUDIO
    TITLE "7:cjc057_07429"
    INDEX 01 01:46:43
  TRACK 79 AUDIO
    TITLE "0:"
    INDEX 01 01:47:72
  TRACK 80 AUDIO
    TITLE "8:cjc057_07430"
    INDEX 01 01:48:30
  TRACK 81 AUDIO
    TITLE "0:"
    INDEX 01 01:49:45
  TRACK 82 AUDIO
    TITLE "7:cjc057_07431"
    INDEX 01 01:50:51
  TRACK 83 AUDIO
    TITLE "0:"
    INDEX 01 01:52:02
  TRACK 84 AUDIO
    TITLE "8:cjc057_07432"
    INDEX 01 01:52:32
  TRACK 85 AUDIO
    TITLE "0:"
    INDEX 01 01:54:29
  TRACK 86 AUDIO
    TITLE "7:cjc057_07433"
    INDEX 01 01:55:36
  TRACK 87 AUDIO
    TITLE "0:"
    INDEX 01 01:56:47
  TRACK 88 AUDIO
    TITLE "8:cjc057_07434"
    INDEX 01 01:57:04
  TRACK 89 AUDIO
    TITLE "0:"
    INDEX 01 01:59:24
  TRACK 90 AUDIO
    TITLE "7:cjc057_07435"
    INDEX 01 02:00:29
  TRACK 91 AUDIO
    TITLE "0:"
    INDEX 01 02:01:56
  TRACK 92 AUDIO
    TITLE "8:cjc057_07436"
    INDEX 01 02:02:13
  TRACK 93 AUDIO
    TITLE "0:"
    INDEX 01 02:04:43
  TRACK 94 AUDIO
    TITLE "7:cjc057_07437"
    INDEX 01 02:05:48
  TRACK 95 AUDIO
    TITLE "0:"
    INDEX 01 02:06:65
  TRACK 96 AUDIO
    TITLE "8:cjc057_07438"
    INDEX 01 02:07:22
  TRACK 97 AUDIO
    TITLE "0:"
    INDEX 01 02:08:62
  TRACK 98 AUDIO
    TITLE "7:cjc057_07439"
    INDEX 01 02:09:68
  TRACK 99 AUDIO
    TITLE "0:"
    INDEX 01 02:11:23
  TRACK 100 AUDIO
    TITLE "8:cjc057_07440"
    INDEX 01 02:11:55
  TRACK 101 AUDIO
    TITLE "0:"
    INDEX 01 02:12:70
  TRACK 102 AUDIO
    TITLE "7:cjc057_07441"
    INDEX 01 02:14:02
  TRACK 103 AUDIO
    TITLE "0:"
    INDEX 01 02:15:09
  TRACK 104 AUDIO
    TITLE "8:cjc057_07442"
    INDEX 01 02:15:41
  TRACK 105 AUDIO
    TITLE "0:"
    INDEX 01 02:17:04
  TRACK 106 AUDIO
    TITLE "7:cjc057_07443"
    INDEX 01 02:18:12
  TRACK 107 AUDIO
    TITLE "0:"
    INDEX 01 02:19:48
  TRACK 108 AUDIO
    TITLE "8:cjc057_07444"
    INDEX 01 02:20:05
  TRACK 109 AUDIO
    TITLE "0:"
    INDEX 01 02:22:33
  TRACK 110 AUDIO
    TITLE "7:cjc057_07445"
    INDEX 01 02:23:38
  TRACK 111 AUDIO
    TITLE "0:"
    INDEX 01 02:24:53
  TRACK 112 AUDIO
    TITLE "8:cjc057_07446"
    INDEX 01 02:25:12
  TRACK 113 AUDIO
    TITLE "0:"
    INDEX 01 02:27:18
